<?xml version="1.0" encoding="utf-8"?>
<!-- Generator: Adobe Illustrator 16.0.3, SVG Export Plug-In . SVG Version: 6.00 Build 0)  -->
<!DOCTYPE svg PUBLIC "-//W3C//DTD SVG 1.1//EN" "http://www.w3.org/Graphics/SVG/1.1/DTD/svg11.dtd">
<svg version="1.1" id="圖層_1" xmlns="http://www.w3.org/2000/svg" xmlns:xlink="http://www.w3.org/1999/xlink" x="0px" y="0px"
	 width="200px" height="200px" viewBox="0 0 200 200" enable-background="new 0 0 200 200" xml:space="preserve">
<g>
	<g>
		<path fill="none" stroke="#FFFFFF" stroke-width="5" stroke-miterlimit="10" d="M99.621,92.975
			c0,23.099-13.269,46.951-29.637,46.951c-16.363,0-29.635-23.853-29.635-46.951c0-23.103,13.272-27.742,29.635-27.742
			C86.352,65.233,99.621,69.872,99.621,92.975z"/>
		<polyline fill="none" stroke="#FFFFFF" stroke-width="5" stroke-miterlimit="10" points="50.157,93.234 63.343,93.234 
			63.343,112.193 		"/>
		<line fill="none" stroke="#FFFFFF" stroke-width="5" stroke-miterlimit="10" x1="74.746" y1="93.234" x2="87.485" y2="93.234"/>
	</g>
	<g>
		<g>
			
				<line fill="none" stroke="#FFFFFF" stroke-width="5" stroke-miterlimit="10" x1="104.341" y1="86.183" x2="106.841" y2="86.183"/>
			
				<line fill="none" stroke="#FFFFFF" stroke-width="5" stroke-miterlimit="10" stroke-dasharray="5.5307,2.2123" x1="109.053" y1="86.183" x2="131.176" y2="86.183"/>
			
				<line fill="none" stroke="#FFFFFF" stroke-width="5" stroke-miterlimit="10" x1="132.282" y1="86.183" x2="134.782" y2="86.183"/>
		</g>
	</g>
	<g>
		<g>
			<polygon fill="none" stroke="#FFFFFF" stroke-width="5" stroke-miterlimit="10" points="140.163,84.951 140.163,107.304 
				146.346,107.304 146.346,124.521 156.918,124.521 156.918,107.304 162.486,107.304 162.486,84.951 			"/>
		</g>
	</g>
</g>
</svg>
