<?xml version="1.0" encoding="utf-8"?>
<!-- Generator: Adobe Illustrator 16.0.3, SVG Export Plug-In . SVG Version: 6.00 Build 0)  -->
<!DOCTYPE svg PUBLIC "-//W3C//DTD SVG 1.1//EN" "http://www.w3.org/Graphics/SVG/1.1/DTD/svg11.dtd">
<svg version="1.1" id="圖層_1" xmlns="http://www.w3.org/2000/svg" xmlns:xlink="http://www.w3.org/1999/xlink" x="0px" y="0px"
	 width="200px" height="200px" viewBox="0 0 200 200" enable-background="new 0 0 200 200" xml:space="preserve">
<g>
	<g>
		<path fill="none" stroke="#FFFFFF" stroke-width="5" stroke-miterlimit="10" d="M152.418,105.841
			c0,28.951-23.469,52.419-52.423,52.419c-28.948,0-52.415-23.468-52.415-52.419c0-28.949,23.466-52.421,52.415-52.421
			C128.949,53.42,152.418,76.892,152.418,105.841z"/>
		<path fill="none" stroke="#FFFFFF" stroke-width="5" stroke-miterlimit="10" stroke-dasharray="5,3" d="M99.995,71.975
			c18.706,0,33.87,15.165,33.87,33.866c0,18.708-15.164,33.863-33.87,33.863c-18.702,0-33.864-15.155-33.864-33.863"/>
		<g>
			<line fill="none" stroke="#FFFFFF" stroke-width="5" stroke-miterlimit="10" x1="91.34" y1="40.779" x2="108.658" y2="40.779"/>
			<line fill="none" stroke="#FFFFFF" stroke-width="5" stroke-miterlimit="10" x1="99.995" y1="40.779" x2="99.995" y2="53.42"/>
		</g>
		<g>
			<line fill="none" stroke="#FFFFFF" stroke-width="5" stroke-miterlimit="10" x1="49.621" y1="62.591" x2="61.865" y2="50.341"/>
			<line fill="none" stroke="#FFFFFF" stroke-width="5" stroke-miterlimit="10" x1="55.743" y1="56.465" x2="64.685" y2="65.407"/>
		</g>
		<g>
			<line fill="none" stroke="#FFFFFF" stroke-width="5" stroke-miterlimit="10" x1="150.289" y1="62.591" x2="138.05" y2="50.341"/>
			
				<line fill="none" stroke="#FFFFFF" stroke-width="5" stroke-miterlimit="10" x1="144.169" y1="56.465" x2="135.229" y2="65.407"/>
		</g>
		<path fill="none" stroke="#FFFFFF" stroke-width="5" stroke-miterlimit="10" d="M107.757,105.841c0,4.286-3.474,7.756-7.757,7.756
			c-4.288,0-7.757-3.47-7.757-7.756c0-4.28,3.47-7.759,7.757-7.759C104.283,98.082,107.757,101.561,107.757,105.841z"/>
		<polygon fill="none" stroke="#FFFFFF" stroke-width="5" stroke-miterlimit="10" points="62.851,104.982 66.131,99.295 
			69.415,104.982 		"/>
	</g>
</g>
</svg>
