<?xml version="1.0" encoding="utf-8"?>
<!-- Generator: Adobe Illustrator 16.0.3, SVG Export Plug-In . SVG Version: 6.00 Build 0)  -->
<!DOCTYPE svg PUBLIC "-//W3C//DTD SVG 1.1//EN" "http://www.w3.org/Graphics/SVG/1.1/DTD/svg11.dtd">
<svg version="1.1" id="圖層_1" xmlns="http://www.w3.org/2000/svg" xmlns:xlink="http://www.w3.org/1999/xlink" x="0px" y="0px"
	 width="200px" height="200px" viewBox="0 0 200 200" enable-background="new 0 0 200 200" xml:space="preserve">
<g>
	<g>
		<g>
			<path fill="none" stroke="#FFFFFF" stroke-width="5" stroke-miterlimit="10" d="M136.491,127.714
				c0,4.856-3.944,8.801-8.802,8.801H72.307c-4.861,0-8.803-3.943-8.803-8.801V72.333c0-4.856,3.942-8.801,8.803-8.801h55.382
				c4.856,0,8.802,3.944,8.802,8.801V127.714z"/>
			<g>
				
					<line fill="none" stroke="#FFFFFF" stroke-width="5" stroke-miterlimit="10" x1="136.491" y1="83.594" x2="155.126" y2="83.594"/>
				
					<line fill="none" stroke="#FFFFFF" stroke-width="5" stroke-miterlimit="10" x1="136.491" y1="99.441" x2="155.126" y2="99.441"/>
				
					<line fill="none" stroke="#FFFFFF" stroke-width="5" stroke-miterlimit="10" x1="136.491" y1="114.648" x2="155.126" y2="114.648"/>
			</g>
			<g>
				<line fill="none" stroke="#FFFFFF" stroke-width="5" stroke-miterlimit="10" x1="44.867" y1="83.594" x2="63.504" y2="83.594"/>
				<line fill="none" stroke="#FFFFFF" stroke-width="5" stroke-miterlimit="10" x1="44.867" y1="99.441" x2="63.504" y2="99.441"/>
				
					<line fill="none" stroke="#FFFFFF" stroke-width="5" stroke-miterlimit="10" x1="44.867" y1="114.648" x2="63.504" y2="114.648"/>
			</g>
			<g>
				
					<line fill="none" stroke="#FFFFFF" stroke-width="5" stroke-miterlimit="10" x1="115.521" y1="136.496" x2="115.521" y2="155.131"/>
				
					<line fill="none" stroke="#FFFFFF" stroke-width="5" stroke-miterlimit="10" x1="99.669" y1="136.496" x2="99.669" y2="155.131"/>
				
					<line fill="none" stroke="#FFFFFF" stroke-width="5" stroke-miterlimit="10" x1="84.473" y1="136.496" x2="84.473" y2="155.131"/>
			</g>
			<g>
				
					<line fill="none" stroke="#FFFFFF" stroke-width="5" stroke-miterlimit="10" x1="115.521" y1="44.87" x2="115.521" y2="63.508"/>
				<line fill="none" stroke="#FFFFFF" stroke-width="5" stroke-miterlimit="10" x1="99.669" y1="44.87" x2="99.669" y2="63.508"/>
				<line fill="none" stroke="#FFFFFF" stroke-width="5" stroke-miterlimit="10" x1="84.473" y1="44.87" x2="84.473" y2="63.508"/>
			</g>
		</g>
		<g>
			<g>
				
					<path fill="none" stroke="#FFFFFF" stroke-width="5" stroke-linecap="round" stroke-linejoin="round" stroke-miterlimit="10" d="
					M123.318,92.939h-4.975c-1.938-5.273-6.064-9.474-11.289-11.505v-4.757H92.932v4.737c-5.253,2.023-9.402,6.233-11.347,11.525
					h-4.908v14.124h5.133c2.033,5.004,6.072,8.963,11.122,10.905v5.355h14.125v-5.376c5.021-1.951,9.037-5.9,11.063-10.887h5.198
					V92.939z"/>
			</g>
		</g>
		<path fill="none" stroke="#FFFFFF" stroke-width="5" stroke-linecap="square" stroke-linejoin="bevel" stroke-miterlimit="10" d="
			M106.052,100c0,3.35-2.713,6.056-6.057,6.056c-3.34,0-6.056-2.706-6.056-6.056c0-3.349,2.716-6.057,6.056-6.057
			C103.339,93.943,106.052,96.651,106.052,100z"/>
	</g>
</g>
</svg>
