<?xml version="1.0" encoding="utf-8"?>
<!-- Generator: Adobe Illustrator 16.0.3, SVG Export Plug-In . SVG Version: 6.00 Build 0)  -->
<!DOCTYPE svg PUBLIC "-//W3C//DTD SVG 1.1//EN" "http://www.w3.org/Graphics/SVG/1.1/DTD/svg11.dtd">
<svg version="1.1" id="圖層_1" xmlns="http://www.w3.org/2000/svg" xmlns:xlink="http://www.w3.org/1999/xlink" x="0px" y="0px"
	 width="200px" height="200px" viewBox="0 0 200 200" enable-background="new 0 0 200 200" xml:space="preserve">
<g>
	<g>
		<g>
			<g>
				<path fill="none" stroke="#FFFFFF" stroke-width="5" stroke-miterlimit="10" d="M164.027,101.398
					c0-15.948-13.234-29.838-32.805-37.113C126.659,52.182,114.404,43.514,100,43.514c-14.406,0-26.659,8.666-31.225,20.767
					c-19.574,7.273-32.813,21.167-32.813,37.118c0,16.358,13.913,30.548,34.303,37.657C75.668,149.389,86.951,156.5,100,156.5
					c13.048,0,24.331-7.113,29.734-17.448C150.119,131.939,164.027,117.754,164.027,101.398z"/>
			</g>
		</g>
		<g>
			
				<rect x="75.678" y="71.214" fill="none" stroke="#FFFFFF" stroke-width="5" stroke-linejoin="round" stroke-miterlimit="10" width="48.632" height="60.049"/>
			
				<line fill="none" stroke="#FFFFFF" stroke-width="5" stroke-linejoin="round" stroke-miterlimit="10" x1="85.883" y1="85.5" x2="114.111" y2="85.5"/>
			
				<line fill="none" stroke="#FFFFFF" stroke-width="5" stroke-linejoin="round" stroke-miterlimit="10" x1="85.883" y1="95.343" x2="114.111" y2="95.343"/>
			
				<line fill="none" stroke="#FFFFFF" stroke-width="5" stroke-linejoin="round" stroke-miterlimit="10" x1="85.883" y1="105.186" x2="114.111" y2="105.186"/>
			
				<line fill="none" stroke="#FFFFFF" stroke-width="5" stroke-linejoin="round" stroke-miterlimit="10" x1="85.883" y1="115.028" x2="114.111" y2="115.028"/>
		</g>
	</g>
</g>
</svg>
