<?xml version="1.0" encoding="utf-8"?>
<!-- Generator: Adobe Illustrator 16.0.3, SVG Export Plug-In . SVG Version: 6.00 Build 0)  -->
<!DOCTYPE svg PUBLIC "-//W3C//DTD SVG 1.1//EN" "http://www.w3.org/Graphics/SVG/1.1/DTD/svg11.dtd">
<svg version="1.1" id="圖層_1" xmlns="http://www.w3.org/2000/svg" xmlns:xlink="http://www.w3.org/1999/xlink" x="0px" y="0px"
	 width="200px" height="200px" viewBox="0 0 200 200" enable-background="new 0 0 200 200" xml:space="preserve">
<g>
	<g>
		<g>
			<circle fill="none" stroke="#FFFFFF" stroke-width="5" stroke-miterlimit="10" cx="99.998" cy="100.004" r="60.247"/>
		</g>
		<line fill="none" stroke="#FFFFFF" stroke-width="5" stroke-miterlimit="10" x1="53.833" y1="61.652" x2="141.098" y2="143.826"/>
		<g>
			<path fill="none" stroke="#FFFFFF" stroke-width="5" stroke-miterlimit="10" d="M130.699,113.963
				c-0.586,0.584-1.172,0.93-1.321,0.784l-6.888-6.894c-0.15-0.145,0.195-0.746,0.773-1.32l14.616-14.616
				c0.583-0.574,1.177-0.929,1.326-0.774l6.887,6.883c0.15,0.154-0.194,0.747-0.782,1.326L130.699,113.963z"/>
			<g>
				<g>
					<path fill="none" stroke="#FFFFFF" stroke-width="5" stroke-miterlimit="10" d="M130.703,82.644L104.02,55.95
						c-0.584-0.574-1.522-0.574-2.109,0L87.301,70.566c-0.585,0.578-0.581,1.521,0,2.109l9.455,9.457l-38.027,38.029l7.773,7.778
						l38.029-38.032l9.457,9.458c0.582,0.579,1.525,0.579,2.104,0l14.611-14.617C131.292,84.165,131.292,83.228,130.703,82.644z"/>
				</g>
			</g>
		</g>
	</g>
</g>
</svg>
